<?xml version="1.0" encoding="UTF-8" standalone="no"?>
<!DOCTYPE svg PUBLIC "-//W3C//DTD SVG 1.1//EN" "http://www.w3.org/Graphics/SVG/1.1/DTD/svg11.dtd">
<svg width="100%" height="100%" viewBox="0 0 69 72" version="1.1" xmlns="http://www.w3.org/2000/svg" xmlns:xlink="http://www.w3.org/1999/xlink" xml:space="preserve" xmlns:serif="http://www.serif.com/" style="fill-rule:evenodd;clip-rule:evenodd;">
    <rect x="0.812" y="0.812" width="67.376" height="70.251" style="fill:none;stroke:rgb(239,185,77);stroke-width:1.62px;"/>
    <path d="M4.065,14.199L9.833,14.199L9.833,14.598L8.332,14.598L11.592,25.383C12.092,23.898 12.514,22.632 12.858,21.585C13.202,20.538 13.491,19.654 13.725,18.935C13.96,18.216 14.14,17.646 14.265,17.224C14.405,16.786 14.507,16.442 14.57,16.192C14.632,15.942 14.671,15.762 14.687,15.653C14.702,15.528 14.71,15.426 14.71,15.348C14.71,15.145 14.648,14.996 14.523,14.902C14.413,14.793 14.265,14.715 14.077,14.668C13.905,14.621 13.717,14.598 13.514,14.598L12.952,14.598L12.952,14.199L17.266,14.199L17.266,14.598L17.078,14.598C16.703,14.598 16.414,14.613 16.211,14.644C16.008,14.66 15.843,14.73 15.718,14.855C15.593,14.965 15.484,15.145 15.39,15.395C15.296,15.645 15.179,15.989 15.038,16.426L10.443,30.448L5.308,14.598L4.065,14.598L4.065,14.199ZM21.262,29.369L23.537,29.369C24.256,29.369 24.92,29.354 25.53,29.322C26.155,29.276 26.694,29.127 27.148,28.877C27.601,28.611 27.96,28.197 28.226,27.634C28.492,27.072 28.625,26.267 28.625,25.219L29.023,25.219L29.023,29.838L17.253,29.838L17.253,29.44L18.425,29.44L18.425,14.598L17.253,14.598L17.253,14.199L29,14.199L29.023,18.044L28.625,18.044C28.5,17.185 28.273,16.528 27.945,16.075C27.632,15.606 27.241,15.27 26.772,15.067C26.319,14.848 25.795,14.73 25.201,14.715C24.623,14.684 23.998,14.668 23.326,14.668L21.262,14.668L21.262,21.585L21.872,21.585C22.356,21.585 22.779,21.569 23.138,21.538C23.513,21.507 23.826,21.405 24.076,21.233C24.326,21.061 24.514,20.795 24.639,20.436C24.764,20.061 24.834,19.545 24.85,18.888L25.225,18.888L25.225,24.797L24.85,24.797C24.834,24.203 24.772,23.734 24.662,23.39C24.568,23.031 24.428,22.765 24.24,22.593C24.052,22.406 23.826,22.288 23.56,22.241C23.294,22.179 22.99,22.148 22.646,22.148L21.262,22.148L21.262,29.369ZM30.187,29.44C30.656,29.44 31.023,29.432 31.289,29.416C31.554,29.385 31.742,29.307 31.851,29.182C31.977,29.041 32.047,28.838 32.062,28.572C32.094,28.291 32.109,27.892 32.109,27.376L32.109,14.902L31.805,14.598L30.187,14.598L30.187,14.199L34.9,14.199L41.699,25.36L41.699,16.544C41.699,16.044 41.684,15.661 41.652,15.395C41.637,15.129 41.582,14.941 41.488,14.832C41.395,14.707 41.254,14.637 41.066,14.621C40.894,14.605 40.652,14.598 40.339,14.598L39.824,14.598L39.824,14.199L44.068,14.199L44.068,14.598L43.528,14.598C43.216,14.598 42.965,14.605 42.778,14.621C42.59,14.637 42.45,14.707 42.356,14.832C42.262,14.941 42.2,15.129 42.168,15.395C42.153,15.661 42.145,16.044 42.145,16.544L42.145,29.956L40.972,29.956L32.555,16.028L32.555,26.978C32.555,27.603 32.563,28.088 32.578,28.431C32.594,28.76 32.656,29.002 32.766,29.158C32.891,29.299 33.086,29.385 33.352,29.416C33.618,29.432 34.001,29.44 34.501,29.44L34.501,29.838L30.187,29.838L30.187,29.44ZM51.429,14.598L49.952,14.598L49.952,27.236C49.952,27.845 49.898,28.408 49.788,28.924C49.679,29.44 49.499,29.885 49.249,30.26C49.014,30.636 48.702,30.933 48.311,31.151C47.936,31.37 47.482,31.48 46.951,31.48C46.701,31.48 46.451,31.441 46.201,31.362C45.951,31.284 45.724,31.167 45.521,31.011C45.333,30.854 45.177,30.651 45.052,30.401C44.942,30.167 44.888,29.885 44.888,29.557C44.888,29.197 44.974,28.885 45.146,28.619C45.333,28.338 45.591,28.197 45.919,28.197C46.154,28.197 46.334,28.299 46.459,28.502C46.599,28.705 46.67,28.963 46.67,29.276C46.67,29.588 46.576,29.807 46.388,29.932C46.216,30.073 45.974,30.213 45.661,30.354C46.083,30.807 46.474,31.034 46.834,31.034C47.115,31.034 47.35,30.917 47.537,30.682C47.74,30.448 47.842,30.081 47.842,29.58C47.842,29.408 47.819,29.237 47.772,29.065C47.725,28.893 47.662,28.713 47.584,28.525C47.49,28.291 47.404,28.033 47.326,27.752C47.264,27.47 47.232,27.197 47.232,26.931L47.232,14.598L45.638,14.598L45.638,14.199L51.429,14.199L51.429,14.598ZM51.719,29.44C52.063,29.44 52.344,29.416 52.563,29.369C52.782,29.322 52.962,29.237 53.103,29.111C53.243,28.986 53.361,28.807 53.454,28.572C53.548,28.322 53.658,28.009 53.783,27.634C54.455,25.352 55.135,23.078 55.822,20.811C56.51,18.529 57.198,16.247 57.886,13.964L58.683,13.964L63.677,29.44L64.709,29.44L64.709,29.838L59.105,29.838L59.105,29.44L60.676,29.44L59.175,24.727L55.096,24.727L54.931,25.196C54.853,25.43 54.76,25.727 54.65,26.087C54.541,26.446 54.431,26.806 54.322,27.165C54.228,27.525 54.142,27.853 54.064,28.15C53.986,28.447 53.947,28.65 53.947,28.76C53.947,28.947 54.017,29.088 54.158,29.182C54.314,29.276 54.494,29.346 54.697,29.393C54.9,29.424 55.103,29.44 55.307,29.44L55.869,29.44L55.869,29.838L51.719,29.838L51.719,29.44ZM55.213,24.328L59.058,24.328L57.089,18.185L55.213,24.328ZM4.065,40.199L9.833,40.199L9.833,40.597L8.332,40.597L11.592,51.383C12.092,49.898 12.514,48.632 12.858,47.585C13.202,46.538 13.491,45.654 13.725,44.935C13.96,44.216 14.14,43.646 14.265,43.224C14.405,42.786 14.507,42.442 14.57,42.192C14.632,41.942 14.671,41.762 14.687,41.653C14.702,41.528 14.71,41.426 14.71,41.348C14.71,41.145 14.648,40.996 14.523,40.902C14.413,40.793 14.265,40.715 14.077,40.668C13.905,40.621 13.717,40.597 13.514,40.597L12.952,40.597L12.952,40.199L17.266,40.199L17.266,40.597L17.078,40.597C16.703,40.597 16.414,40.613 16.211,40.644C16.008,40.66 15.843,40.73 15.718,40.856C15.593,40.965 15.484,41.145 15.39,41.395C15.296,41.645 15.179,41.989 15.038,42.426L10.443,56.448L5.308,40.597L4.065,40.597L4.065,40.199ZM17.347,40.199L23.185,40.199L23.185,40.597L21.497,40.597L21.497,55.44L23.185,55.44L23.185,55.838L17.347,55.838L17.347,55.44L18.824,55.44L18.824,40.597L17.347,40.597L17.347,40.199ZM28.334,55.44L29.765,55.44L29.765,55.838L24.466,55.838L24.466,55.44L25.755,55.44L25.755,40.597L24.466,40.597L24.466,40.199L31.242,40.199C31.758,40.199 32.266,40.262 32.766,40.387C33.266,40.512 33.704,40.723 34.079,41.02C34.47,41.301 34.782,41.684 35.017,42.169C35.267,42.638 35.392,43.231 35.392,43.951C35.392,44.498 35.306,44.974 35.134,45.381C34.978,45.787 34.759,46.139 34.478,46.436C34.196,46.717 33.868,46.952 33.493,47.139C33.118,47.327 32.719,47.468 32.297,47.561L32.297,47.819C32.953,47.991 33.462,48.273 33.821,48.663C34.196,49.039 34.478,49.468 34.665,49.953C34.853,50.438 34.97,50.953 35.017,51.501C35.064,52.032 35.095,52.54 35.111,53.025C35.126,53.368 35.142,53.697 35.158,54.009C35.189,54.306 35.236,54.572 35.298,54.807C35.361,55.025 35.455,55.205 35.58,55.346C35.705,55.471 35.877,55.533 36.095,55.533C36.236,55.533 36.369,55.518 36.494,55.487C36.619,55.44 36.744,55.393 36.869,55.346C36.885,55.346 36.9,55.338 36.916,55.322L37.057,55.674C36.791,55.799 36.525,55.885 36.26,55.932C36.009,55.979 35.752,56.002 35.486,56.002C34.798,56.002 34.259,55.901 33.868,55.698C33.477,55.494 33.172,55.213 32.953,54.853C32.75,54.494 32.609,54.064 32.531,53.564C32.469,53.064 32.414,52.509 32.367,51.899C32.352,51.712 32.336,51.516 32.32,51.313C32.305,51.11 32.281,50.899 32.25,50.68C32.172,50.008 32.008,49.484 31.758,49.109C31.523,48.734 31.226,48.46 30.867,48.288C30.523,48.101 30.132,47.991 29.694,47.96C29.257,47.913 28.803,47.89 28.334,47.89L28.334,55.44ZM28.334,40.597L28.334,47.515L29.085,47.515C29.522,47.515 29.952,47.452 30.374,47.327C30.812,47.202 31.195,47.007 31.523,46.741C31.851,46.459 32.117,46.108 32.32,45.686C32.524,45.248 32.625,44.716 32.625,44.091C32.625,43.388 32.531,42.809 32.344,42.356C32.156,41.903 31.898,41.551 31.57,41.301C31.242,41.035 30.859,40.856 30.421,40.762C29.983,40.652 29.515,40.597 29.014,40.597L28.334,40.597ZM49.273,45.217L48.804,45.217C48.726,44.638 48.593,44.076 48.405,43.528C48.233,42.981 48.007,42.497 47.725,42.075C47.444,41.653 47.1,41.317 46.694,41.067C46.287,40.816 45.818,40.691 45.287,40.691C44.427,40.691 43.747,40.949 43.247,41.465C42.747,41.965 42.364,42.591 42.098,43.341C41.848,44.091 41.684,44.896 41.606,45.756C41.528,46.6 41.481,47.366 41.465,48.054C41.449,48.492 41.457,48.976 41.488,49.508C41.52,50.039 41.582,50.578 41.676,51.125C41.77,51.657 41.895,52.181 42.051,52.696C42.223,53.212 42.442,53.673 42.708,54.08C42.973,54.471 43.294,54.791 43.669,55.041C44.044,55.276 44.482,55.393 44.982,55.393C45.686,55.393 46.287,55.182 46.788,54.76C47.288,54.338 47.538,53.658 47.538,52.72L47.538,48.828L46.155,48.828L46.155,48.429L51.641,48.429L51.641,48.828L50.281,48.828L50.234,55.721C50.047,55.315 49.867,55.049 49.695,54.924C49.523,54.799 49.336,54.76 49.132,54.807C48.945,54.838 48.734,54.916 48.499,55.041C48.28,55.166 48.03,55.276 47.749,55.369C47.296,55.557 46.827,55.713 46.342,55.838C45.873,55.979 45.381,56.049 44.865,56.049C43.896,56.049 43.02,55.862 42.239,55.487C41.457,55.111 40.785,54.58 40.222,53.892C39.66,53.204 39.222,52.392 38.909,51.454C38.612,50.5 38.464,49.445 38.464,48.288C38.464,47.21 38.612,46.17 38.909,45.17C39.222,44.169 39.66,43.294 40.222,42.544C40.785,41.778 41.449,41.168 42.215,40.715C42.997,40.262 43.857,40.035 44.795,40.035C45.17,40.035 45.514,40.097 45.826,40.222C46.139,40.347 46.436,40.488 46.717,40.644C46.999,40.785 47.264,40.918 47.514,41.043C47.765,41.168 48.022,41.231 48.288,41.231C48.507,41.231 48.648,41.16 48.71,41.02C48.773,40.863 48.812,40.676 48.827,40.457L49.273,40.457L49.273,45.217ZM51.582,55.44C51.926,55.44 52.207,55.416 52.426,55.369C52.645,55.322 52.825,55.237 52.965,55.111C53.106,54.986 53.223,54.807 53.317,54.572C53.411,54.322 53.52,54.009 53.645,53.634C54.317,51.352 54.997,49.078 55.685,46.811C56.373,44.529 57.061,42.247 57.748,39.965L58.546,39.965L63.54,55.44L64.572,55.44L64.572,55.838L58.968,55.838L58.968,55.44L60.539,55.44L59.038,50.727L54.958,50.727L54.794,51.196C54.716,51.43 54.622,51.727 54.513,52.087C54.403,52.446 54.294,52.806 54.184,53.165C54.091,53.525 54.005,53.853 53.926,54.15C53.848,54.447 53.809,54.65 53.809,54.76C53.809,54.947 53.88,55.088 54.02,55.182C54.177,55.276 54.356,55.346 54.56,55.393C54.763,55.424 54.966,55.44 55.169,55.44L55.732,55.44L55.732,55.838L51.582,55.838L51.582,55.44ZM55.075,50.328L58.921,50.328L56.951,44.185L55.075,50.328Z" style="fill:url(#_Linear1);fill-rule:nonzero;"/>
    <defs>
        <linearGradient id="_Linear1" x1="0" y1="0" x2="1" y2="0" gradientUnits="userSpaceOnUse" gradientTransform="matrix(52.7305,38.4813,-38.4813,52.7305,4,8.5)"><stop offset="0" style="stop-color:rgb(239,185,77);stop-opacity:1"/><stop offset="1" style="stop-color:rgb(219,142,54);stop-opacity:1"/></linearGradient>
    </defs>
</svg>
